<?xml version="1.0" encoding="UTF-8"?>
<svg xmlns="http://www.w3.org/2000/svg" xmlns:xlink="http://www.w3.org/1999/xlink" width="647.86pt" height="316.63pt" viewBox="216.07 238.24 647.86 316.63" preserveAspectRatio="xMinYMin meet" version="1.2">
<g id="surface1">
<path style=" stroke:none;fill-rule:nonzero;fill:rgb(12.837219%,21.205139%,35.693359%);fill-opacity:1;" d="M 313.847656 277.140625 C 283.65625 277.140625 266.363281 292.5 261.980469 323.214844 L 260.925781 323.214844 L 263.03125 279.773438 L 220.640625 279.773438 L 220.640625 413.265625 L 263.03125 413.265625 L 263.03125 340.855469 C 263.03125 315.230469 274.261719 302.414062 296.734375 302.414062 C 307.792969 302.414062 315.863281 306.058594 320.957031 313.34375 C 326.046875 320.628906 328.589844 331.90625 328.589844 347.175781 L 328.589844 413.265625 L 370.71875 413.265625 L 370.71875 341.121094 C 370.71875 320.234375 365.539062 304.351562 355.183594 293.464844 C 344.828125 282.582031 331.046875 277.140625 313.847656 277.140625 "/>
<path style=" stroke:none;fill-rule:nonzero;fill:rgb(12.837219%,21.205139%,35.693359%);fill-opacity:1;" d="M 444.96875 305.316406 C 452.25 298.644531 461.332031 295.308594 472.21875 295.308594 C 483.976562 295.308594 493.414062 298.644531 500.523438 305.316406 C 507.632812 311.984375 511.183594 320.757812 511.183594 331.640625 L 432.722656 331.640625 C 433.601562 320.757812 437.683594 311.984375 444.96875 305.316406 M 502.234375 385.878906 C 495.210938 391.324219 485.996094 394.042969 474.585938 394.042969 C 462.300781 394.042969 452.25 390.09375 444.441406 382.195312 C 436.628906 374.296875 432.632812 363.238281 432.460938 349.019531 L 552.257812 349.019531 L 552.523438 341.121094 C 552.523438 327.785156 549.054688 316.0625 542.121094 305.972656 C 535.1875 295.878906 525.621094 288.109375 513.421875 282.667969 C 501.222656 277.230469 487.398438 274.503906 471.953125 274.503906 C 456.15625 274.503906 441.980469 277.402344 429.433594 283.195312 C 416.882812 288.988281 407.007812 297.324219 399.8125 308.207031 C 392.613281 319.09375 389.019531 331.90625 389.019531 346.648438 C 389.019531 360.867188 392.527344 373.417969 399.546875 384.300781 C 406.566406 395.1875 416.441406 403.609375 429.167969 409.578125 C 441.894531 415.542969 456.507812 418.527344 473.007812 418.527344 C 487.753906 418.527344 501.003906 416.421875 512.765625 412.207031 C 524.523438 407.992188 533.960938 401.984375 541.070312 394.171875 C 548.179688 386.367188 552.347656 377.367188 553.578125 367.1875 L 515.136719 364.554688 C 513.554688 373.332031 509.25 380.4375 502.234375 385.878906 "/>
<path style=" stroke:none;fill-rule:nonzero;fill:rgb(12.837219%,21.205139%,35.693359%);fill-opacity:1;" d="M 623.945312 299.386719 C 629.210938 296.316406 636.320312 294.78125 645.269531 294.78125 C 655.976562 294.78125 664.753906 297.109375 671.601562 301.757812 C 678.445312 306.40625 682.65625 313.207031 684.238281 322.164062 L 718.992188 319 C 717.761719 310.40625 714.03125 302.808594 707.804688 296.230469 C 701.570312 289.644531 693.101562 284.46875 682.394531 280.695312 C 671.6875 276.925781 659.3125 275.03125 645.269531 275.03125 C 632.105469 275.03125 620.390625 276.875 610.121094 280.558594 C 599.851562 284.246094 591.824219 289.382812 586.03125 295.964844 C 580.238281 302.542969 577.34375 310.050781 577.34375 318.476562 C 577.34375 330.0625 581.59375 339.71875 590.109375 347.441406 C 598.621094 355.160156 612.003906 359.8125 630.261719 361.398438 L 652.117188 363.496094 C 660.015625 364.382812 665.980469 366.132812 670.019531 368.765625 C 674.058594 371.394531 676.078125 375.175781 676.078125 380.089844 C 676.078125 385.351562 673.265625 389.660156 667.652344 392.988281 C 662.03125 396.320312 654.484375 397.996094 645.007812 397.996094 C 633.246094 397.996094 623.589844 395.488281 616.046875 390.488281 C 608.496094 385.488281 603.84375 378.425781 602.089844 369.289062 L 567.074219 373.238281 C 569.707031 387.460938 578.085938 398.480469 592.21875 406.285156 C 606.34375 414.09375 623.945312 418 645.007812 418 C 658.871094 418 671.292969 416.199219 682.265625 412.605469 C 693.230469 409.007812 701.835938 403.871094 708.066406 397.203125 C 714.296875 390.53125 717.414062 382.722656 717.414062 373.765625 C 717.414062 360.605469 712.320312 350.46875 702.144531 343.355469 C 691.960938 336.25 678.183594 331.820312 660.804688 330.0625 L 638.953125 328.21875 C 623.679688 326.8125 616.046875 321.285156 616.046875 311.628906 C 616.046875 306.542969 618.679688 302.457031 623.945312 299.386719 "/>
<path style=" stroke:none;fill-rule:nonzero;fill:rgb(12.837219%,21.205139%,35.693359%);fill-opacity:1;" d="M 826.808594 299.316406 C 835.847656 299.726562 844.679688 296.121094 852.609375 288.511719 C 867.15625 274.558594 867.628906 254.945312 854.292969 238.25 C 840.316406 251.304688 826.820312 263.914062 813.425781 276.429688 L 722.386719 276.429688 L 722.386719 299.675781 L 748.371094 299.675781 L 748.371094 361.21875 C 748.371094 398.964844 766.601562 417.832031 803.074219 417.832031 C 812.550781 417.832031 822.035156 416.738281 831.519531 414.550781 L 832.335938 387.746094 C 827.960938 388.84375 823.859375 389.390625 820.03125 389.390625 C 801.433594 389.390625 792.132812 378.175781 792.132812 355.746094 L 792.132812 299.675781 Z M 826.808594 299.316406 "/>
<path style=" stroke:none;fill-rule:nonzero;fill:rgb(84.745789%,82.026672%,64.823914%);fill-opacity:1;" d="M 241.03125 479.710938 C 237.964844 481.972656 236.429688 485.097656 236.429688 489.085938 C 236.429688 493.070312 237.964844 496.195312 241.03125 498.457031 C 244.09375 500.71875 248.3125 501.851562 253.679688 501.851562 C 258.96875 501.851562 263.148438 500.71875 266.214844 498.457031 C 269.28125 496.195312 270.816406 493.070312 270.816406 489.085938 C 270.816406 485.097656 269.28125 481.972656 266.214844 479.710938 C 263.148438 477.453125 258.96875 476.320312 253.679688 476.320312 C 248.3125 476.320312 244.09375 477.453125 241.03125 479.710938 M 270.46875 545.378906 C 274.683594 543.496094 276.796875 540.871094 276.796875 537.5 C 276.796875 534.050781 275.109375 531.558594 271.738281 530.027344 C 268.363281 528.492188 263.953125 527.726562 258.511719 527.726562 L 244.367188 527.726562 C 241.375 527.726562 238.84375 527.457031 236.777344 526.917969 C 232.789062 529.527344 230.796875 532.707031 230.796875 536.464844 C 230.796875 544.285156 238.15625 548.195312 252.875 548.195312 C 260.386719 548.195312 266.253906 547.253906 270.46875 545.378906 M 283.695312 520.710938 C 289.136719 524.085938 291.863281 528.800781 291.863281 534.855469 C 291.863281 541.066406 288.351562 545.953125 281.339844 549.515625 C 274.324219 553.082031 264.070312 554.863281 250.578125 554.863281 C 239.765625 554.863281 231.3125 553.40625 225.21875 550.496094 C 219.125 547.582031 216.078125 543.324219 216.078125 537.730469 C 216.078125 534.664062 217.285156 531.980469 219.699219 529.679688 C 222.113281 527.378906 225.351562 525.960938 229.417969 525.425781 L 229.417969 524.964844 C 222.667969 523.433594 219.296875 519.984375 219.296875 514.613281 C 219.296875 511.933594 220.503906 509.632812 222.917969 507.714844 C 225.335938 505.800781 228.726562 504.839844 233.09375 504.839844 C 234.167969 504.839844 235.011719 504.878906 235.625 504.953125 L 235.625 504.496094 C 230.949219 503.039062 227.382812 500.96875 224.929688 498.285156 C 222.476562 495.601562 221.25 492.535156 221.25 489.085938 C 221.25 482.953125 224.164062 478.085938 229.992188 474.480469 C 235.816406 470.878906 243.714844 469.074219 253.679688 469.074219 C 261.804688 469.074219 268.632812 470.300781 274.152344 472.753906 C 274.917969 468.234375 276.738281 464.878906 279.613281 462.691406 C 282.488281 460.507812 285.957031 459.53125 290.023438 459.761719 L 290.710938 470.109375 L 288.757812 469.996094 C 283.386719 469.996094 280.050781 471.757812 278.75 475.285156 C 283.65625 478.890625 286.113281 483.488281 286.113281 489.085938 C 286.113281 495.140625 283.273438 499.953125 277.601562 503.515625 C 271.925781 507.082031 264.300781 508.863281 254.714844 508.863281 C 251.800781 508.863281 248.085938 508.445312 243.558594 507.601562 C 240.339844 506.988281 238.15625 506.679688 237.007812 506.679688 C 234.78125 506.679688 233.054688 507.023438 231.832031 507.714844 C 230.601562 508.40625 229.992188 509.402344 229.992188 510.703125 C 229.992188 512.46875 231.027344 513.734375 233.09375 514.5 C 235.167969 515.265625 238.308594 515.652344 242.527344 515.652344 L 261.042969 515.652344 C 270.703125 515.652344 278.253906 517.335938 283.695312 520.710938 "/>
<path style=" stroke:none;fill-rule:nonzero;fill:rgb(84.745789%,82.026672%,64.823914%);fill-opacity:1;" d="M 302.210938 471.375 L 317.160156 471.375 L 315.664062 491.039062 L 316.355469 491.039062 C 317.351562 484.828125 319.554688 479.867188 322.96875 476.148438 C 326.378906 472.429688 330.960938 470.570312 336.710938 470.570312 C 339.3125 470.570312 341.578125 470.878906 343.496094 471.488281 L 342.921875 485.175781 C 341.3125 484.484375 339.875 484.023438 338.605469 483.792969 C 337.34375 483.566406 335.980469 483.449219 334.523438 483.449219 C 328.238281 483.449219 323.792969 485.5 321.1875 489.601562 C 318.578125 493.703125 317.234375 499.4375 317.160156 506.792969 L 317.160156 529.449219 L 302.210938 529.449219 Z M 302.210938 471.375 "/>
<path style=" stroke:none;fill-rule:nonzero;fill:rgb(84.745789%,82.026672%,64.823914%);fill-opacity:1;" d="M 397.257812 520.191406 C 400.515625 518.316406 403.066406 515.671875 404.90625 512.257812 C 406.746094 508.847656 407.667969 504.878906 407.667969 500.355469 C 407.667969 495.832031 406.746094 491.863281 404.90625 488.453125 C 403.066406 485.042969 400.515625 482.398438 397.257812 480.515625 C 394 478.640625 390.261719 477.699219 386.046875 477.699219 C 381.828125 477.699219 378.089844 478.640625 374.832031 480.515625 C 371.574219 482.398438 369.042969 485.042969 367.242188 488.453125 C 365.441406 491.863281 364.542969 495.832031 364.542969 500.355469 C 364.542969 504.878906 365.441406 508.847656 367.242188 512.257812 C 369.042969 515.671875 371.574219 518.316406 374.832031 520.191406 C 378.089844 522.070312 381.828125 523.011719 386.046875 523.011719 C 390.261719 523.011719 394 522.070312 397.257812 520.191406 M 367.015625 527.726562 C 361.378906 525.042969 356.988281 521.324219 353.847656 516.570312 C 350.699219 511.816406 349.132812 506.410156 349.132812 500.355469 C 349.132812 494.375 350.699219 489.007812 353.847656 484.253906 C 356.988281 479.503906 361.378906 475.785156 367.015625 473.101562 C 372.648438 470.417969 378.988281 469.074219 386.046875 469.074219 C 393.175781 469.074219 399.539062 470.417969 405.136719 473.101562 C 410.730469 475.785156 415.101562 479.480469 418.246094 484.199219 C 421.390625 488.914062 422.960938 494.300781 422.960938 500.355469 C 422.960938 506.410156 421.390625 511.816406 418.246094 516.570312 C 415.101562 521.324219 410.730469 525.042969 405.136719 527.726562 C 399.539062 530.40625 393.175781 531.75 386.046875 531.75 C 378.988281 531.75 372.648438 530.40625 367.015625 527.726562 "/>
<path style=" stroke:none;fill-rule:nonzero;fill:rgb(84.745789%,82.026672%,64.823914%);fill-opacity:1;" d="M 441.128906 524.101562 C 437.066406 519.847656 435.035156 513.003906 435.035156 503.574219 L 435.035156 471.375 L 449.984375 471.375 L 449.984375 501.503906 C 449.984375 508.863281 451.289062 514.058594 453.894531 517.085938 C 456.5 520.117188 460.449219 521.628906 465.738281 521.628906 C 476.472656 521.628906 481.839844 515.191406 481.839844 502.308594 L 481.839844 471.375 L 496.789062 471.375 L 496.789062 510.476562 L 498.859375 529.449219 L 484.253906 529.449219 L 482.527344 510.707031 L 482.070312 510.707031 C 481.070312 517.144531 478.621094 522.050781 474.710938 525.425781 C 470.800781 528.800781 465.625 530.484375 459.1875 530.484375 C 451.210938 530.484375 445.191406 528.355469 441.128906 524.101562 "/>
<path style=" stroke:none;fill-rule:nonzero;fill:rgb(84.745789%,82.026672%,64.823914%);fill-opacity:1;" d="M 559.695312 520.078125 C 562.914062 518.199219 565.40625 515.554688 567.171875 512.140625 C 568.933594 508.730469 569.816406 504.839844 569.816406 500.46875 C 569.816406 496.101562 568.933594 492.210938 567.171875 488.796875 C 565.40625 485.386719 562.914062 482.742188 559.695312 480.863281 C 556.476562 478.984375 552.796875 478.042969 548.65625 478.042969 C 544.4375 478.042969 540.71875 478.984375 537.5 480.863281 C 534.28125 482.742188 531.769531 485.386719 529.964844 488.796875 C 528.164062 492.210938 527.265625 496.101562 527.265625 500.46875 C 527.265625 504.839844 528.164062 508.730469 529.964844 512.140625 C 531.769531 515.554688 534.28125 518.199219 537.5 520.078125 C 540.71875 521.957031 544.4375 522.894531 548.65625 522.894531 C 552.796875 522.894531 556.476562 521.957031 559.695312 520.078125 M 512.773438 471.375 L 527.726562 471.375 L 526.691406 485.980469 L 527.035156 485.980469 C 528.566406 480.996094 531.691406 477.011719 536.40625 474.019531 C 541.121094 471.03125 546.585938 469.535156 552.796875 469.535156 C 559.003906 469.535156 564.582031 470.839844 569.527344 473.445312 C 574.472656 476.054688 578.324219 479.710938 581.085938 484.429688 C 583.84375 489.140625 585.226562 494.453125 585.226562 500.355469 C 585.226562 506.335938 583.84375 511.703125 581.085938 516.453125 C 578.324219 521.210938 574.472656 524.90625 569.527344 527.554688 C 564.582031 530.199219 559.003906 531.519531 552.796875 531.519531 C 546.816406 531.519531 541.542969 530.179688 536.984375 527.496094 C 532.421875 524.8125 529.449219 521.363281 528.070312 517.144531 L 527.726562 517.144531 L 527.726562 552.449219 L 512.773438 552.449219 Z M 512.773438 471.375 "/>
</g>
</svg>
